<svg id="prefix__illustration" xmlns="http://www.w3.org/2000/svg" viewBox="0 0 1024 768"><defs><clipPath id="prefix__clip-path"><path class="prefix__cls-1" d="M766.3 538.9l-520-14.9a48.07 48.07 0 01-46.5-43.3l-25.1-248a48.18 48.18 0 0147.2-53l578.8-8a48.21 48.21 0 0148.5 54.1l-33.7 270.9a48.27 48.27 0 01-49.2 42.2z"/></clipPath><clipPath id="prefix__clip-path-2"><path class="prefix__cls-1" d="M717.5 240.4s5.8-7.9 34.4-9.9 45.5 4.3 51.5 14.2-10.3 65.4-11.8 73.1 6.1 27 6.1 31.1-32.8 16.2-53.5 15.8a103.54 103.54 0 01-39.5-8.9 4.24 4.24 0 01-2.4-4.7c1.2-6 3.8-19.7 6.3-31.6 3.3-15.9-5.8-55.4 8.9-79.1z"/></clipPath><clipPath id="prefix__clip-path-3"><path class="prefix__cls-1" d="M186.4 374.7a2.91 2.91 0 01-1.6-3.8c3.1-8.8 13.8-37.5 22.8-47.5 10.8-11.9 44.9-12.6 59.4-12.6s34.9 2.6 43 9.6c7 6 18.6 35.8 21.8 44.2a3.13 3.13 0 01-1.1 3.6c-4 2.7-13.5 8.8-22.5 12.1l4.3 60.6s-93.4-1.4-97.1-3.2-8.5-23.7-7.8-26 7.4-27.8 7.4-27.8-18.8-4.9-28.6-9.2z"/></clipPath><style>.prefix__cls-1,.prefix__cls-16,.prefix__cls-20,.prefix__cls-21,.prefix__cls-22,.prefix__cls-27,.prefix__cls-4,.prefix__cls-9{fill:none}.prefix__cls-4{stroke:#b8d8c7}.prefix__cls-16,.prefix__cls-20,.prefix__cls-21,.prefix__cls-22,.prefix__cls-27,.prefix__cls-4,.prefix__cls-9{stroke-linecap:round;stroke-linejoin:round;stroke-width:1.8px}.prefix__cls-5{fill:#b8d8c7}.prefix__cls-6{fill:#f8ab5d}.prefix__cls-7{fill:#2D3161}.prefix__cls-8{fill:#22272e}.prefix__cls-9{stroke:#63737a}.prefix__cls-10{fill:#63737a}.prefix__cls-11{fill:#b0d7c0}.prefix__cls-12{fill:#f4c2c9}.prefix__cls-13{fill:#6dafa7}.prefix__cls-14{fill:#e26e85}.prefix__cls-15{fill:#fff}.prefix__cls-16{stroke:#e26e85}.prefix__cls-20{stroke:#22272e}.prefix__cls-21{stroke:#f8ab5d}.prefix__cls-22{stroke:#6dafa7}.prefix__cls-23{fill:#b28d93}.prefix__cls-24{fill:#896068}.prefix__cls-27{stroke:#fff}</style></defs><path d="M766.3 538.9l-520-14.9a48.07 48.07 0 01-46.5-43.3l-25.1-248a48.18 48.18 0 0147.2-53l578.8-8a48.21 48.21 0 0148.5 54.1l-33.7 270.9a48.27 48.27 0 01-49.2 42.2z" fill="#eaf9f3"/><g clip-path="url(#prefix__clip-path)"><path class="prefix__cls-4" d="M597.3 606.2H181.8a15 15 0 01-15-15V355.5a15 15 0 0115-15h415.5a15 15 0 0115 15v235.6a15.07 15.07 0 01-15 15.1zM903 590.3H779a15 15 0 01-15-15V231a15 15 0 0115-15h124a15 15 0 0115 15v344.3a15 15 0 01-15 15zM259.9 270.1H170v-8.9h89.9a1.79 1.79 0 011.8 1.8v5.2a1.71 1.71 0 01-1.8 1.9z"/><path class="prefix__cls-4" d="M243.7 261.3h-20.3a4.32 4.32 0 01-4.3-3.8l-1.6-14.4a4.33 4.33 0 014.3-4.8h23.5a4.34 4.34 0 014.3 4.8l-1.6 14.4a4.41 4.41 0 01-4.3 3.8z"/><path class="prefix__cls-5" d="M231.1 238.3s-8-.8-9.6-11.6c0 0 7.2 2.1 9.5 7.2 0 0 1-11.4 6.4-12.5 0 0 2.4 8.5-1.4 12.7 0 0 2.9-4.8 10.3-4.7a13.6 13.6 0 01-9.2 8.8"/><path class="prefix__cls-4" d="M594.2 390.2H504a4.23 4.23 0 01-4.2-4.2v-27.4a4.23 4.23 0 014.2-4.2h90.2a4.23 4.23 0 014.2 4.2V386a4.23 4.23 0 01-4.2 4.2z"/><path class="prefix__cls-5" d="M559.4 364.1h-20.8a1.54 1.54 0 01-1.5-1.5 1.54 1.54 0 011.5-1.5h20.8a1.54 1.54 0 011.5 1.5 1.47 1.47 0 01-1.5 1.5z"/><path class="prefix__cls-4" d="M594.2 436H504a4.23 4.23 0 01-4.2-4.2v-27.4a4.23 4.23 0 014.2-4.2h90.2a4.23 4.23 0 014.2 4.2v27.4a4.23 4.23 0 01-4.2 4.2z"/><path class="prefix__cls-5" d="M559.4 409.9h-20.8a1.54 1.54 0 01-1.5-1.5 1.54 1.54 0 011.5-1.5h20.8a1.54 1.54 0 011.5 1.5 1.47 1.47 0 01-1.5 1.5z"/><path class="prefix__cls-4" d="M241.4 390.2h-90.2a4.23 4.23 0 01-4.2-4.2v-27.4a4.23 4.23 0 014.2-4.2h90.2a4.23 4.23 0 014.2 4.2V386a4.1 4.1 0 01-4.2 4.2z"/><path class="prefix__cls-5" d="M206.7 364.1h-20.8a1.54 1.54 0 01-1.5-1.5 1.54 1.54 0 011.5-1.5h20.8a1.54 1.54 0 011.5 1.5 1.54 1.54 0 01-1.5 1.5z"/><path class="prefix__cls-4" d="M241.4 436h-90.2a4.23 4.23 0 01-4.2-4.2v-27.4a4.23 4.23 0 014.2-4.2h90.2a4.23 4.23 0 014.2 4.2v27.4a4.1 4.1 0 01-4.2 4.2z"/><path class="prefix__cls-5" d="M206.7 409.9h-20.8a1.54 1.54 0 01-1.5-1.5 1.54 1.54 0 011.5-1.5h20.8a1.54 1.54 0 011.5 1.5 1.54 1.54 0 01-1.5 1.5z"/><path class="prefix__cls-4" d="M945.2 320.9H785.4a4.65 4.65 0 01-4.6-4.6v-79.7a4.65 4.65 0 014.6-4.6h159.9a4.65 4.65 0 014.6 4.6v79.7a4.74 4.74 0 01-4.7 4.6zM945.2 419.8H785.4a4.65 4.65 0 01-4.6-4.6v-79.7a4.65 4.65 0 014.6-4.6h159.9a4.65 4.65 0 014.6 4.6v79.7a4.67 4.67 0 01-4.7 4.6z"/><path class="prefix__cls-4" d="M811.4 270.6h9.9v50.3h-9.9zM821.3 284.3h10.3v36.6h-10.3z"/><path class="prefix__cls-5" d="M815.2 376.1l1.1-14.9a1.65 1.65 0 00-1.7-1.8H806a1.71 1.71 0 00-1.7 1.8l1.1 14.9s-9 5.8-8.9 10.6c.1 3.7 2.3 21.4 3.3 29.2a4.32 4.32 0 004.3 3.8h12.4a4.32 4.32 0 004.3-3.8c1-7.8 3.2-25.5 3.3-29.2.1-4.8-8.9-10.6-8.9-10.6z"/><path class="prefix__cls-4" d="M190.9 514.2h644.2"/></g><path class="prefix__cls-6" d="M476.1 199.4l-93.7 12a8.19 8.19 0 01-8.8-7.2l-9.9-87.8c-.5-4.1 2.8-7.2 7-6.7l93.8 12a8.5 8.5 0 017.1 6.8l9.7 63.8a6.05 6.05 0 01-5.2 7.1z"/><path class="prefix__cls-7" d="M479.9 199.4l-93.7 12a8.35 8.35 0 01-8.9-7.2l-10-87.8c-.5-4.1 2.8-7.2 7-6.7l93.8 12a8.5 8.5 0 017.1 6.8l9.8 63.8a5.88 5.88 0 01-5.1 7.1z"/><path class="prefix__cls-8" d="M408 142.3c3-1.1 4.2-5.4.9-9.8-5-4.1-9.7-1.1-9.1 3.7a7.75 7.75 0 004.4 5.9 9.45 9.45 0 00-7.9 8.2l21.1.6a13.91 13.91 0 00-9.4-8.6z"/><path class="prefix__cls-9" d="M427.3 135.9l34.4 2.5M428.4 144.1l34.4 1.7"/><path class="prefix__cls-8" d="M412.8 179.6c3-1.5 4.2-6.1.8-10.3-5-3.8-9.7-.1-9.1 4.8a6.91 6.91 0 004.5 5.7c-4.1 1-7.2 4.7-7.9 9.4l21.1-1.6c-1.6-4.3-5.3-7.5-9.4-8z"/><path class="prefix__cls-9" d="M432.1 170.8l34.2-.9M433.2 179.3l34.3-1.8"/><path class="prefix__cls-8" d="M565.9 274.4l-44.8-7.9c-5.1-.9-8.8-6.8-8.3-13.2l8.3-104.6c.5-6.4 5.1-12.3 10.3-13.2l46-7.9c6.8-1.2 12 4 11.4 11.6L579 263c-.4 7.4-6.4 12.5-13.1 11.4z"/><path class="prefix__cls-8" d="M562.4 274.4l-44.8-7.9c-5.1-.9-8.8-6.8-8.3-13.2l8.3-104.6c.5-6.4 5.1-12.3 10.3-13.2l46-7.9c6.8-1.2 12 4 11.4 11.6L575.5 263c-.4 7.4-6.5 12.5-13.1 11.4z"/><path class="prefix__cls-10" d="M548.9 143.3l-8.6 1.2a1.33 1.33 0 01-1.4-1.6 2.15 2.15 0 011.7-2l8.6-1.3c.9-.1 1.5.6 1.5 1.6a2.26 2.26 0 01-1.8 2.1zM557.6 142.1l-1.2.2a1.36 1.36 0 01-1.5-1.6 2.36 2.36 0 011.8-2.1l1.2-.2a1.36 1.36 0 011.5 1.6 2.34 2.34 0 01-1.8 2.1zM534.1 254.4l-14.9-2.1c-1.6-.2-2.8-2-2.6-4 .2-2 1.6-3.5 3.2-3.3l14.9 1.8c1.7.2 3 2.1 2.9 4.2-.2 2.2-1.8 3.7-3.5 3.4z"/><path class="prefix__cls-9" d="M523.7 158.8l21.3-2.4M520.1 203.6l10.3.1M538.4 203.7l11.3.1M558.6 203.9l12.5.1"/><path class="prefix__cls-11" d="M548.3 195.7l-24.9.3c-1.5 0-2.6-1.5-2.4-3.3l1.7-21.6a3.87 3.87 0 013-3.6l25.1-2.2c1.7-.2 3 1.3 2.8 3.3l-1.8 23.4a4.15 4.15 0 01-3.5 3.7z"/><path class="prefix__cls-7" d="M581 195.2l-16.7.2a3.12 3.12 0 01-3-3.6l1.9-24a4.48 4.48 0 013.6-4l16.8-1.5z"/><path class="prefix__cls-12" d="M564.8 240.5l-44.6-4.2c-1.5-.1-2.5-1.7-2.4-3.6l1.4-17.7c.1-1.8 1.5-3.3 2.9-3.3L567 213a3.4 3.4 0 013.1 3.9l-1.6 20.2a3.49 3.49 0 01-3.7 3.4z"/><path class="prefix__cls-8" d="M644.7 275.9l-44.6-9.2c-5-1-8.5-7-8-13.4l8.3-104.6c.5-6.4 5-12.4 10.2-13.4l46.1-9.2c7-1.4 12.3 3.7 11.7 11.5l-10 126.9c-.8 7.7-7 12.8-13.7 11.4z"/><path class="prefix__cls-8" d="M641.9 275.9l-44.6-9.2c-5-1-8.5-7-8-13.4l8.3-104.6c.5-6.4 5-12.4 10.2-13.4l46.1-9.2c7-1.4 12.3 3.7 11.7 11.5l-10 126.9c-.8 7.7-7 12.8-13.7 11.4z"/><path class="prefix__cls-10" d="M628.4 142.7l-8.6 1.4c-.8.1-1.4-.6-1.4-1.6a2.37 2.37 0 011.7-2.1l8.6-1.5c.9-.2 1.5.6 1.5 1.6a2.76 2.76 0 01-1.8 2.2zM637.1 141.2l-1.2.2c-.9.2-1.6-.6-1.5-1.6a2.48 2.48 0 011.8-2.2l1.2-.2c.9-.2 1.6.6 1.5 1.6a2.46 2.46 0 01-1.8 2.2z"/><path class="prefix__cls-9" d="M603.4 158.7l21.1-2.7"/><path class="prefix__cls-10" d="M613.5 254.9l-14.7-2.4c-1.6-.3-2.7-2.1-2.5-4.1.2-2 1.5-3.5 3.1-3.2l14.7 2c1.7.2 3 2.2 2.8 4.3-.1 2.2-1.7 3.7-3.4 3.4z"/><path class="prefix__cls-7" d="M648 195.3l-45 .7c-1.5 0-2.5-1.5-2.4-3.3l1.7-21.7c.1-1.8 1.4-3.5 2.9-3.6l45.3-4.7a3 3 0 013.2 3.5l-2 25.1a4 4 0 01-3.7 4z"/><path class="prefix__cls-8" d="M629.1 179.3l-4.6-3c-.6-.4-1.5.2-1.5 1.1l-.5 6.5a.88.88 0 001.4.9l5.1-3.5a1.22 1.22 0 00.1-2z"/><path class="prefix__cls-10" d="M644.7 236.6l-44.5-4.4c-1.4-.1-2.5-1.7-2.3-3.6l1.7-21.7c.1-1.8 1.4-3.3 2.9-3.3l44.9.4a3.48 3.48 0 013.2 3.9l-2 25.1c-.3 2.2-2 3.8-3.9 3.6z"/><path class="prefix__cls-8" d="M626 218.4l-4.5-3.5c-.6-.5-1.5.1-1.5 1l-.5 6.5c-.1.9.7 1.5 1.4 1.1l5-3a1.32 1.32 0 00.1-2.1z"/><path class="prefix__cls-9" d="M433.5 205.3a3.69 3.69 0 003.7 3.7h75.6M583.6 209h9.3"/><path class="prefix__cls-8" d="M347.3 486.5H200a4.44 4.44 0 01-4.4-4.4 4.44 4.44 0 014.4-4.4h147.3a4.44 4.44 0 014.4 4.4 4.44 4.44 0 01-4.4 4.4z"/><path class="prefix__cls-13" d="M218.8 486.5H208l-1 12.8h10.5l1.3-12.8z"/><path class="prefix__cls-11" d="M207 499.3l-11.6 154.1a3.24 3.24 0 003.2 3.5 3.17 3.17 0 003.2-2.9l15.7-154.6H207z"/><path class="prefix__cls-13" d="M328.5 486.5h10.9l.9 12.8h-10.5l-1.3-12.8z"/><path class="prefix__cls-11" d="M340.3 499.3L352 653.4a3.24 3.24 0 01-3.2 3.5 3.17 3.17 0 01-3.2-2.9l-15.7-154.6h10.4z"/><path class="prefix__cls-8" d="M503.7 486.5H356.4a4.44 4.44 0 01-4.4-4.4 4.44 4.44 0 014.4-4.4h147.3a4.44 4.44 0 014.4 4.4 4.37 4.37 0 01-4.4 4.4z"/><path class="prefix__cls-13" d="M375.3 486.5h-10.9l-1 12.8H374l1.3-12.8z"/><path class="prefix__cls-11" d="M363.4 499.3l-11.6 154.1a3.24 3.24 0 003.2 3.5 3.17 3.17 0 003.2-2.9L374 499.3z"/><path class="prefix__cls-13" d="M484.9 486.5h10.9l1 12.8h-10.6l-1.3-12.8z"/><path class="prefix__cls-11" d="M496.8 499.3l11.6 154.1a3.24 3.24 0 01-3.2 3.5 3.17 3.17 0 01-3.2-2.9l-15.7-154.6h10.5z"/><path class="prefix__cls-12" d="M743.5 603.4l1.9 18.5c.4 3.4 1.1 7.6 1.6 10.3a5.73 5.73 0 01-1.5 5 51.27 51.27 0 000 10.3v.2a6.13 6.13 0 01-5.2 6.8 174.59 174.59 0 01-22.1 2.2 92 92 0 01-14.9-.6 5.09 5.09 0 01-3.5-8.1c4.2-5.5 9.9-13.3 13.1-18 5.3-8 4.6-18.8 3.4-26.7s22.8-5.9 27.2.1z"/><path class="prefix__cls-14" d="M744.2 610.3c-.4-3.8-.7-6.9-.7-6.9-4.3-6-28.4-7.9-27.2 0a63.15 63.15 0 01.7 14c10.1 1.7 21.6.3 27.2-7.1z"/><path class="prefix__cls-8" d="M745.5 647.7a51 51 0 010-10.3 5.82 5.82 0 001.5-5c-.5-2.7-1.2-6.9-1.6-10.3a.9.9 0 00-.1-.5c-3.1 2.9-6.4 5.6-7.7 9.7a4.44 4.44 0 01-5.3 3c-7.4-1.9-14.8-2.3-22.2.1-3.1 4.4-7.2 9.8-10.3 14a5.07 5.07 0 003.5 8.1 121.7 121.7 0 0014.9.6 174.59 174.59 0 0022.1-2.2 6.13 6.13 0 005.2-6.8z"/><path class="prefix__cls-12" d="M798.3 605.4s3.1 11.8 3.1 15.9c0 2.9-.7 10-1.2 14.2a8 8 0 00.9 4.8 1.69 1.69 0 01.3 1c.1.7.1 3.7.1 6.5a6.2 6.2 0 005.6 6.2 154.21 154.21 0 0017.9.2c6.9-.2 11.6-.6 14.7-.9a4.6 4.6 0 003.6-6.7c-4.2-7.8-11.5-21.8-13-25.2-2.1-4.9-4.3-19.1-4.3-19.1s-27.1-11.1-27.7 3.1z"/><path class="prefix__cls-14" d="M828.4 614.8c-1.3-5.8-2.4-12.5-2.4-12.5s-27.1-11.1-27.6 3.1c0 0 .7 2.6 1.4 5.8 9.5 3.7 19 4.4 28.6 3.6z"/><path class="prefix__cls-8" d="M843.3 646.6c-1.8-3.3-4.1-7.8-6.4-12.1a4.87 4.87 0 00-1.2-.1c-7.9-2.2-16.8 1.1-24.7 1.1-3.1-1-4.3-9.6-9.7-12.7-.2 3.4-.7 9.2-1.1 12.8a8 8 0 00.9 4.8 1.69 1.69 0 01.3 1c.1.7.1 3.7.1 6.5a6.2 6.2 0 005.6 6.2 154.21 154.21 0 0017.9.2c6.9-.2 11.6-.6 14.7-.9a4.66 4.66 0 003.6-6.8zM794.8 343.3s8.1 12.5 10.3 37.1c1.3 14.2-.5 63.7 0 68.4.4 3.6 7 48.3 13.1 89.3 3 19.6 8.4 39.2 11.5 51.9a20.39 20.39 0 01-1.3 14.2s-2 6.5-11.5 7c-11.1.5-14.9-.9-20.1-3.1a13.75 13.75 0 01-7.9-9.9c-2-11-4.6-31.3-10.8-52.9-7.8-27-17.7-58.4-21.6-82.8-.5-2.9-2.6-12.5-4.8-21.6-1.9-7.7-3.8-15-4.8-17.8-3.6-10-3.2-10.4-4.4-12.8-1.9-3.8-6.3.9-10.7-17.3a79.78 79.78 0 01-1.6-11.4c-1-11.5-1.3-25.6-1.3-25.6s50.5-25 65.9-12.7z"/><path class="prefix__cls-8" d="M703.8 355.1a702.2 702.2 0 00-6.9 99.5c0 11.3 2.9 37.7 6.3 65.3 3.6 29.5 4.2 53.5 6.2 77.1a13.73 13.73 0 003.7 8.4c1 1 1.9 2.1 2.9 3.1 1.6 1.8 5.3 4.5 12.9 4.3 11.3-.3 16.6-5.8 18.7-8.5 1.7-2.2 3.8-4.8 3.9-11.7.3-16.8-3.8-22.4-2.5-76.9a466.45 466.45 0 00-1.7-53.3c-.6-6.2 20.9-76.6 22.8-85.7s-50.5-30.7-66.3-21.6z"/><path class="prefix__cls-9" d="M783.9 368s1.9 14.9 15.2 22.4M751.5 440.9c-1.9-7.7-3.8-15-4.8-17.8-3.6-10-3.2-10.4-4.4-12.8-1.9-3.8-6.3.9-10.7-17.3"/><ellipse class="prefix__cls-9" cx="712.4" cy="467.8" rx="12.8" ry="14"/><ellipse class="prefix__cls-9" cx="782.3" cy="467.8" rx="13.9" ry="14"/><path class="prefix__cls-12" d="M719.1 301.4c-12.8 17.3-26.3 25.1-37.8 17.7-9.9-6.4-20-53.6-23.3-70.1-.7-3.6-1.1-5.7-1.1-5.7l-1.1-4.9s-10.6-1.7-13.2-2.5a12 12 0 01-7.6-6.1c-2.1-3.8-7.8-10.2-5.1-11.1s9.9 7.9 9.9 7.9a113 113 0 0015.9-1c9.6-1.2 14.5-1.2 17.5 2.8a20.43 20.43 0 012.7 6.1l2.2 5.9 15 39.9s.7-1.3 1.8-3.4c10.7 6.1 17.7 15.1 24.2 24.5z"/><path class="prefix__cls-14" d="M713.8 308a72.75 72.75 0 005.3-6.6c-6.5-9.3-13.6-18.4-24.3-24.5-.4.8-.7 1.4-1 1.9 8.8 8.3 15.2 18.3 20 29.2z"/><path class="prefix__cls-15" d="M693.1 276.4c10.7 6.2 19.6 15.7 26.1 25 1.5-2.1 3.1-4.3 4.6-6.6a198.79 198.79 0 00-27.8-22.9 27.83 27.83 0 00-2.9 4.5z"/><path class="prefix__cls-13" d="M717.5 240.8s-6 4.6-12.6 17a150.08 150.08 0 01-9 14 206.06 206.06 0 0127.8 22.9c1.8-2.8 3.6-5.8 5.4-8.9 15.6-27.8-2.1-50.1-11.6-45z"/><path class="prefix__cls-16" d="M693.1 280.3s2.1 5.8 3.9 11"/><path class="prefix__cls-12" d="M634.1 228.3s-4.9-3.7-7.5-5.4 1.7-3.6 5.6-2 10.7 3.9 10.7 3.9-4.2-4-5.3-5.4 1.7-2.6 4.4-.9 7.3 5.9 10.5 7.3 3.1 5 1.5 5.6-13.8-.7-19.9-3.1zM670.1 225.9s-5.4-2.7-7.6-3.6a39.82 39.82 0 00-6.7-2.1c-.9-.1-2.6 1.6.7 4.3s5.2 4.3 5.2 4.3 10 .4 8.4-2.9z"/><path class="prefix__cls-7" d="M717.5 240.4s5.8-7.9 34.4-9.9 45.5 4.3 51.5 14.2-10.3 65.4-11.8 73.1 6.1 27 6.1 31.1-32.8 16.2-53.5 15.8a103.54 103.54 0 01-39.5-8.9 4.24 4.24 0 01-2.4-4.7c1.2-6 3.8-19.7 6.3-31.6 3.3-15.9-5.8-55.4 8.9-79.1z"/><g clip-path="url(#prefix__clip-path-2)"><path class="prefix__cls-6" d="M701.5 371.4l1.1 1.4a2.25 2.25 0 01-.4 3.2l-1.4 1.1a2.25 2.25 0 01-3.2-.4l-1.1-1.4a2.25 2.25 0 01.4-3.2l1.4-1.1a2.42 2.42 0 013.2.4zM703.9 351.1l1.1 1.4a2.25 2.25 0 01-.4 3.2l-1.4 1.1a2.25 2.25 0 01-3.2-.4l-1-1.4a2.25 2.25 0 01.4-3.2l1.4-1.1a2.32 2.32 0 013.1.4zM706.3 330.9l1.1 1.4a2.25 2.25 0 01-.4 3.2l-1.4 1.1a2.25 2.25 0 01-3.2-.4l-1.1-1.4a2.25 2.25 0 01.4-3.2l1.4-1.1a2.25 2.25 0 013.2.4zM708.7 310.6l1.1 1.4a2.25 2.25 0 01-.4 3.2l-1.4 1.1a2.25 2.25 0 01-3.2-.4l-1.1-1.4a2.25 2.25 0 01.4-3.2l1.4-1.1a2.25 2.25 0 013.2.4zM711.1 290.3l1.1 1.4a2.25 2.25 0 01-.4 3.2l-1.4 1.1a2.25 2.25 0 01-3.2-.4l-1.1-1.4a2.25 2.25 0 01.4-3.2l1.4-1.1a2.35 2.35 0 013.2.4zM719.8 373.6l1.1 1.4a2.25 2.25 0 01-.4 3.2l-1.4 1.1a2.25 2.25 0 01-3.2-.4l-1.1-1.4a2.25 2.25 0 01.4-3.2l1.4-1.1a2.25 2.25 0 013.2.4zM722.2 353.3l1.1 1.4a2.25 2.25 0 01-.4 3.2l-1.4 1.1a2.25 2.25 0 01-3.2-.4l-1.1-1.4a2.25 2.25 0 01.4-3.2l1.4-1.1a2.35 2.35 0 013.2.4zM724.6 333l1.1 1.4a2.25 2.25 0 01-.4 3.2l-1.4 1.1a2.25 2.25 0 01-3.2-.4l-1.1-1.4a2.25 2.25 0 01.4-3.2l1.4-1.1a2.35 2.35 0 013.2.4zM726.9 312.7l1.1 1.4a2.25 2.25 0 01-.4 3.2l-1.4 1.1a2.25 2.25 0 01-3.2-.4l-1.1-1.4a2.25 2.25 0 01.4-3.2l1.4-1.1a2.42 2.42 0 013.2.4zM729.3 292.4l1.1 1.4a2.25 2.25 0 01-.4 3.2l-1.4 1.1a2.25 2.25 0 01-3.2-.4l-1.1-1.4a2.25 2.25 0 01.4-3.2l1.4-1.1a2.44 2.44 0 013.2.4zM738.1 375.7l1.1 1.4a2.25 2.25 0 01-.4 3.2l-1.4 1.1a2.25 2.25 0 01-3.2-.4l-1.1-1.4a2.25 2.25 0 01.4-3.2l1.4-1.1a2.35 2.35 0 013.2.4zM740.5 355.4l1.1 1.4a2.25 2.25 0 01-.4 3.2l-1.4 1.1a2.25 2.25 0 01-3.2-.4l-1.1-1.4a2.25 2.25 0 01.4-3.2l1.4-1.1a2.45 2.45 0 013.2.4zM742.8 335.2l1.1 1.4a2.25 2.25 0 01-.4 3.2l-1.4 1.1a2.25 2.25 0 01-3.2-.4l-1.1-1.4a2.25 2.25 0 01.4-3.2l1.4-1.1a2.23 2.23 0 013.2.4zM745.2 314.9l1.1 1.4a2.25 2.25 0 01-.4 3.2l-1.4 1.1a2.25 2.25 0 01-3.2-.4l-1.1-1.4a2.25 2.25 0 01.4-3.2l1.4-1.1a2.25 2.25 0 013.2.4zM747.6 294.6l1.1 1.4a2.25 2.25 0 01-.4 3.2l-1.4 1.1a2.25 2.25 0 01-3.2-.4l-1.1-1.4a2.25 2.25 0 01.4-3.2l1.4-1.1a2.25 2.25 0 013.2.4zM756.3 377.9l1.1 1.4a2.25 2.25 0 01-.4 3.2l-1.4 1.1a2.25 2.25 0 01-3.2-.4l-1.1-1.4a2.25 2.25 0 01.4-3.2l1.4-1.1a2.23 2.23 0 013.2.4zM758.7 357.6l1.1 1.4a2.25 2.25 0 01-.4 3.2l-1.4 1.1a2.25 2.25 0 01-3.2-.4l-1.1-1.4a2.25 2.25 0 01.4-3.2l1.4-1.1a2.25 2.25 0 013.2.4zM761.1 337.3l1.1 1.4a2.25 2.25 0 01-.4 3.2l-1.4 1.1a2.25 2.25 0 01-3.2-.4l-1.1-1.4a2.25 2.25 0 01.4-3.2l1.4-1.1a2.35 2.35 0 013.2.4zM763.5 317l1.1 1.4a2.25 2.25 0 01-.4 3.2l-1.4 1.1a2.25 2.25 0 01-3.2-.4l-1.1-1.4a2.25 2.25 0 01.4-3.2l1.4-1.1a2.35 2.35 0 013.2.4zM765.9 296.7l1.1 1.4a2.25 2.25 0 01-.4 3.2l-1.4 1.1a2.25 2.25 0 01-3.2-.4l-1.1-1.4a2.25 2.25 0 01.4-3.2l1.4-1.1a2.45 2.45 0 013.2.4zM774.6 380l1.1 1.4a2.25 2.25 0 01-.4 3.2l-1.4 1.1a2.25 2.25 0 01-3.2-.4l-1.1-1.4a2.25 2.25 0 01.4-3.2l1.4-1.1a2.35 2.35 0 013.2.4zM777 359.7l1.1 1.4a2.25 2.25 0 01-.4 3.2l-1.4 1.1a2.25 2.25 0 01-3.2-.4l-1.1-1.4a2.25 2.25 0 01.4-3.2l1.4-1.1a2.35 2.35 0 013.2.4zM779.4 339.4l1.1 1.4a2.25 2.25 0 01-.4 3.2l-1.4 1.1a2.25 2.25 0 01-3.2-.4l-1.1-1.4a2.25 2.25 0 01.4-3.2l1.4-1.1a2.45 2.45 0 013.2.4zM781.7 319.2l1.1 1.4a2.25 2.25 0 01-.4 3.2l-1.4 1.1a2.25 2.25 0 01-3.2-.4l-1.1-1.4a2.25 2.25 0 01.4-3.2l1.4-1.1a2.23 2.23 0 013.2.4zM784.1 298.9l1.1 1.4a2.25 2.25 0 01-.4 3.2l-1.4 1.1a2.25 2.25 0 01-3.2-.4l-1.1-1.4a2.25 2.25 0 01.4-3.2l1.4-1.1a2.24 2.24 0 013.2.4zM792.9 382.1l1.1 1.4a2.25 2.25 0 01-.4 3.2l-1.4 1.1a2.25 2.25 0 01-3.2-.4l-1-1.4a2.25 2.25 0 01.4-3.2l1.4-1.1a2.33 2.33 0 013.1.4zM795.2 361.9l1.1 1.4a2.25 2.25 0 01-.4 3.2l-1.4 1.1a2.25 2.25 0 01-3.2-.4l-1.1-1.4a2.25 2.25 0 01.4-3.2l1.4-1.1a2.23 2.23 0 013.2.4zM797.6 341.6l1.1 1.4a2.25 2.25 0 01-.4 3.2l-1.4 1.1a2.25 2.25 0 01-3.2-.4l-1.1-1.4a2.25 2.25 0 01.4-3.2l1.4-1.1a2.24 2.24 0 013.2.4zM800 321.3l1.1 1.4a2.25 2.25 0 01-.4 3.2l-1.4 1.1a2.25 2.25 0 01-3.2-.4l-1.1-1.4a2.25 2.25 0 01.4-3.2l1.4-1.1a2.35 2.35 0 013.2.4zM802.4 301l1.1 1.4a2.25 2.25 0 01-.4 3.2l-1.4 1.1a2.25 2.25 0 01-3.2-.4l-1.1-1.4a2.25 2.25 0 01.4-3.2l1.4-1.1a2.35 2.35 0 013.2.4zM811.1 384.3l1.1 1.4a2.25 2.25 0 01-.4 3.2l-1.4 1.1a2.25 2.25 0 01-3.2-.4l-1.1-1.4a2.25 2.25 0 01.4-3.2l1.4-1.1a2.24 2.24 0 013.2.4zM813.5 364l1.1 1.4a2.25 2.25 0 01-.4 3.2l-1.4 1.1a2.25 2.25 0 01-3.2-.4l-1.1-1.4a2.25 2.25 0 01.4-3.2l1.4-1.1a2.35 2.35 0 013.2.4zM815.9 343.7l1.1 1.4a2.25 2.25 0 01-.4 3.2l-1.4 1.1a2.25 2.25 0 01-3.2-.4l-1.1-1.4a2.25 2.25 0 01.4-3.2l1.4-1.1a2.45 2.45 0 013.2.4zM818.3 323.4l1.1 1.4a2.25 2.25 0 01-.4 3.2l-1.4 1.1a2.25 2.25 0 01-3.2-.4l-1.1-1.4a2.25 2.25 0 01.4-3.2l1.4-1.1a2.45 2.45 0 013.2.4zM820.6 303.2l1.1 1.4a2.25 2.25 0 01-.4 3.2l-1.4 1.1a2.25 2.25 0 01-3.2-.4l-1.1-1.4a2.25 2.25 0 01.4-3.2l1.4-1.1a2.23 2.23 0 013.2.4zM713.4 270l1.1 1.4a2.25 2.25 0 01-.4 3.2l-1.4 1.1a2.25 2.25 0 01-3.2-.4l-1.1-1.4a2.25 2.25 0 01.4-3.2l1.4-1.1a2.32 2.32 0 013.2.4zM715.8 249.7l1.1 1.4a2.25 2.25 0 01-.4 3.2l-1.4 1.1a2.25 2.25 0 01-3.2-.4l-1.1-1.4a2.25 2.25 0 01.4-3.2l1.4-1.1a2.44 2.44 0 013.2.4zM718.2 229.5l1.1 1.4a2.25 2.25 0 01-.4 3.2l-1.4 1.1a2.25 2.25 0 01-3.2-.4l-1.1-1.4a2.25 2.25 0 01.4-3.2l1.4-1.1a2.25 2.25 0 013.2.4zM720.6 209.2l1.1 1.4a2.25 2.25 0 01-.4 3.2l-1.4 1.1a2.25 2.25 0 01-3.2-.4l-1.1-1.4a2.25 2.25 0 01.4-3.2l1.4-1.1a2.25 2.25 0 013.2.4zM731.7 272.2l1.1 1.4a2.25 2.25 0 01-.4 3.2l-1.4 1.1a2.25 2.25 0 01-3.2-.4l-1.1-1.4a2.25 2.25 0 01.4-3.2l1.4-1.1a2.25 2.25 0 013.2.4zM734.1 251.9l1.1 1.4a2.25 2.25 0 01-.4 3.2l-1.4 1.1a2.25 2.25 0 01-3.2-.4l-1.1-1.4a2.25 2.25 0 01.4-3.2l1.4-1.1a2.25 2.25 0 013.2.4zM736.5 231.6l1.1 1.4a2.25 2.25 0 01-.4 3.2l-1.4 1.1a2.25 2.25 0 01-3.2-.4l-1.1-1.4a2.25 2.25 0 01.4-3.2l1.4-1.1a2.35 2.35 0 013.2.4zM738.8 211.3l1.1 1.4a2.25 2.25 0 01-.4 3.2l-1.4 1.1a2.25 2.25 0 01-3.2-.4l-1.1-1.4a2.25 2.25 0 01.4-3.2l1.4-1.1a2.32 2.32 0 013.2.4zM750 274.3l1.1 1.4a2.25 2.25 0 01-.4 3.2l-1.4 1.1a2.25 2.25 0 01-3.2-.4l-1.1-1.4a2.25 2.25 0 01.4-3.2l1.4-1.1a2.35 2.35 0 013.2.4zM752.4 254l1.1 1.4a2.25 2.25 0 01-.4 3.2l-1.4 1.1a2.25 2.25 0 01-3.2-.4l-1.1-1.4a2.25 2.25 0 01.4-3.2l1.4-1.1a2.35 2.35 0 013.2.4zM754.7 233.7l1.1 1.4a2.25 2.25 0 01-.4 3.2l-1.4 1.1a2.25 2.25 0 01-3.2-.4l-1.1-1.4a2.25 2.25 0 01.4-3.2l1.4-1.1a2.42 2.42 0 013.2.4zM757.1 213.5l1.1 1.4a2.25 2.25 0 01-.4 3.2l-1.4 1.1a2.25 2.25 0 01-3.2-.4l-1.1-1.4a2.25 2.25 0 01.4-3.2l1.4-1.1a2.25 2.25 0 013.2.4zM768.2 276.4l1.1 1.4a2.25 2.25 0 01-.4 3.2l-1.4 1.1a2.25 2.25 0 01-3.2-.4l-1.1-1.4a2.25 2.25 0 01.4-3.2l1.4-1.1a2.42 2.42 0 013.2.4zM770.6 256.2l1.1 1.4a2.25 2.25 0 01-.4 3.2l-1.4 1.1a2.25 2.25 0 01-3.2-.4l-1.1-1.4a2.25 2.25 0 01.4-3.2l1.4-1.1a2.25 2.25 0 013.2.4zM773 235.9l1.1 1.4a2.25 2.25 0 01-.4 3.2l-1.4 1.1a2.25 2.25 0 01-3.2-.4l-1.1-1.4a2.25 2.25 0 01.4-3.2l1.4-1.1a2.25 2.25 0 013.2.4zM775.4 215.6l1.1 1.4a2.25 2.25 0 01-.4 3.2l-1.4 1.1a2.25 2.25 0 01-3.2-.4l-1.1-1.4a2.25 2.25 0 01.4-3.2l1.4-1.1a2.35 2.35 0 013.2.4zM786.5 278.6l1.1 1.4a2.25 2.25 0 01-.4 3.2l-1.4 1.1a2.25 2.25 0 01-3.2-.4l-1.1-1.4a2.25 2.25 0 01.4-3.2l1.4-1.1a2.35 2.35 0 013.2.4zM788.9 258.3l1.1 1.4a2.25 2.25 0 01-.4 3.2l-1.4 1.1a2.25 2.25 0 01-3.2-.4l-1.1-1.4a2.25 2.25 0 01.4-3.2l1.4-1.1a2.35 2.35 0 013.2.4zM791.3 238l1.1 1.4a2.25 2.25 0 01-.4 3.2l-1.4 1.1a2.25 2.25 0 01-3.2-.4l-1.1-1.4a2.25 2.25 0 01.4-3.2l1.4-1.1a2.45 2.45 0 013.2.4zM793.6 217.7l1.1 1.4a2.25 2.25 0 01-.4 3.2l-1.4 1.1a2.25 2.25 0 01-3.2-.4l-1.1-1.4a2.25 2.25 0 01.4-3.2l1.4-1.1a2.42 2.42 0 013.2.4zM804.8 280.7l1.1 1.4a2.25 2.25 0 01-.4 3.2l-1.4 1.1a2.25 2.25 0 01-3.2-.4l-1.1-1.4a2.25 2.25 0 01.4-3.2l1.4-1.1a2.45 2.45 0 013.2.4zM807.1 260.5l1.1 1.4a2.25 2.25 0 01-.4 3.2l-1.4 1.1a2.25 2.25 0 01-3.2-.4l-1.1-1.4a2.25 2.25 0 01.4-3.2l1.4-1.1a2.23 2.23 0 013.2.4zM809.5 240.2l1.1 1.4a2.25 2.25 0 01-.4 3.2l-1.4 1.1a2.25 2.25 0 01-3.2-.4l-1.1-1.4a2.25 2.25 0 01.4-3.2l1.4-1.1a2.24 2.24 0 013.2.4zM811.9 219.9l1.1 1.4a2.25 2.25 0 01-.4 3.2l-1.4 1.1a2.25 2.25 0 01-3.2-.4l-1.1-1.4a2.25 2.25 0 01.4-3.2l1.4-1.1a2.25 2.25 0 013.2.4zM823 282.9l1.1 1.4a2.25 2.25 0 01-.4 3.2l-1.4 1.1a2.25 2.25 0 01-3.2-.4l-1.1-1.4a2.25 2.25 0 01.4-3.2l1.4-1.1a2.24 2.24 0 013.2.4zM825.4 262.6l1.1 1.4a2.25 2.25 0 01-.4 3.2l-1.4 1.1a2.25 2.25 0 01-3.2-.4l-1.1-1.4a2.25 2.25 0 01.4-3.2l1.4-1.1a2.35 2.35 0 013.2.4zM827.8 242.3l1.1 1.4a2.25 2.25 0 01-.4 3.2l-1.4 1.1a2.25 2.25 0 01-3.2-.4l-1.1-1.4a2.25 2.25 0 01.4-3.2l1.4-1.1a2.35 2.35 0 013.2.4zM830.2 222l1.1 1.4a2.25 2.25 0 01-.4 3.2l-1.4 1.1a2.25 2.25 0 01-3.2-.4l-1.1-1.4a2.25 2.25 0 01.4-3.2l1.4-1.1a2.45 2.45 0 013.2.4z"/></g><path class="prefix__cls-15" d="M771.7 236.8c-.1 7-12.1 19.3-22.3 20.3-10.2 1.9-15.6-7.6-15.6-15.5s8.9-15.4 19.3-16.4c9.8-1.1 18.7 4.5 18.6 11.6z"/><path class="prefix__cls-12" d="M740.2 221.6l-1.5 12.8s-3.6 11.4 7.7 12.8 19-9.6 19.4-13.4l-1.5-28.7c.1.1-20.3 2-24.1 16.5z"/><path class="prefix__cls-14" d="M754.1 228.1c-4.6 1.4-9.8 1.2-14.8 1.1l-.5 4.5a19.26 19.26 0 0015.3-5.6z"/><path class="prefix__cls-8" d="M739.1 339.1h-52.7a4.84 4.84 0 01-4.8-4.1l-5.7-36.3a3.79 3.79 0 013.8-4.4h52.7a4.84 4.84 0 014.8 4.1l5.7 36.3a3.79 3.79 0 01-3.8 4.4z"/><circle cx="706.1" cy="300.9" r="1.6" fill="#e3d7ff"/><path class="prefix__cls-12" d="M750.8 316.8s-4-4.5-6.4-6a31.57 31.57 0 00-5.7-2.6l-.1 8.5s9.7 1.6 12.2.1z"/><path class="prefix__cls-12" d="M756.3 316.2c-3.4.4-5.5.6-5.5.6a38.92 38.92 0 00-4.7-3.1c-2.4-1.3-7-.7-11.2-.9s-8.8-.4-13.5-.8c-3.6-.3-6.9-.7-7.3.8-.6 2.4 4.8 3 4.8 3s-5.1 0-6.3.6c-2.5 1.2-.2 3.2-.2 3.2-3.6 1.7-.3 4.3-.3 4.3s-1.9.8-.5 3c2.9 4.7 17.6 9 20.9 9h14.8s3.8.3 10.2.9a31.09 31.09 0 00-1.2-20.6z"/><path class="prefix__cls-8" d="M764 315.4c-2.9.3-5.5.6-7.6.8a31.07 31.07 0 011.1 20.6c2.1.2 4.5.4 7.1.6 2.5-7.2 3.1-14.8-.6-22z"/><path class="prefix__cls-12" d="M789.8 294.5c4 9.1 7.8 17.2 7.8 17.2-3.6.5-21.1 2.4-33.7 3.7 3.7 7.3 3.1 14.8.6 22.1 7.1.6 15.9 1.4 25.6 2.3 24.2 2.2 39.7.9 43.1-12.1 2.9-11.1-.7-21.6-12.4-48.9-10.6 4.6-21.4 9.2-31 15.7z"/><path class="prefix__cls-14" d="M820.9 278.8c-10.7 4.6-21.5 9.2-31.1 15.7.3.6.6 1.3.9 1.9 9.3-8 21.1-9.9 33-11.1-.9-2.1-1.8-4.2-2.8-6.5z"/><path class="prefix__cls-13" d="M821.7 271.1c-14.1-32.5-23.4-32-23.4-32-16.6-6.1-23.2 16.5-17.1 35 1.2 3.8 4 9.7 6.7 15.8 9.6-7.8 23-12.8 34.9-16.4a12.81 12.81 0 01-1.1-2.4z"/><path class="prefix__cls-15" d="M787.8 289.9c.7 1.5 1.4 3.1 2 4.6 9.5-6.5 24.1-11.9 34.8-16.5-.6-1.5-1.3-3-2-4.6-11.8 3.7-25.3 8.6-34.8 16.5z"/><path class="prefix__cls-16" d="M719 315.8s6.6.9 8.6 1.3a60.35 60.35 0 006.3.6M712.4 319.6s7.1 1.7 9.8 2.3 10.9 1.5 10.9 1.5M712.1 323.9a53.78 53.78 0 008 3.5 79.63 79.63 0 0011.4 2.4M797.6 311.6s12-1.9 14.9-1.7"/><circle class="prefix__cls-15" cx="762.2" cy="323.5" r="5.2"/><path class="prefix__cls-8" d="M727.1 180.5a12.69 12.69 0 00-3.3 11.8c1.5 7.6 12.2 14.9 12.2 14.9s4.7-33.6-8.9-26.7z"/><path class="prefix__cls-12" d="M728.1 183.6s-1.3 19.2-1.6 26.8 2.7 17.9 13.8 19.7 22.4-3.5 26.1-17.9 3.3-30.9-9.3-33.1-29 4.5-29 4.5z"/><path class="prefix__cls-8" d="M762.7 206.4a10.77 10.77 0 00-2.4-7.2 12.14 12.14 0 01-2.4-7.8s-2.1-10.8-17.8-.5c-6.6 4.3-22.1-1.3-19.3-13.5 4.3-18.8 27.9-10.8 34.7-9.6s13.5 1.2 14.7 8.2c0 0 10.6 4.5 7.5 16.9-4.1 16.2-12.3 33-12.3 33s-.9-9.2-2.7-19.5z"/><path class="prefix__cls-12" d="M761.1 206.3s2.3-7.7 8.4-6 3.1 13.6-5.3 15.1"/><path class="prefix__cls-8" d="M730.3 204a1.32 1.32 0 01-1.3-1.3v-1.2a1.32 1.32 0 011.3-1.3 1.32 1.32 0 011.3 1.3v1.2a1.21 1.21 0 01-1.3 1.3zM745.5 204a1.32 1.32 0 01-1.3-1.3v-1.2a1.32 1.32 0 011.3-1.3 1.32 1.32 0 011.3 1.3v1.2a1.32 1.32 0 01-1.3 1.3zM727.8 196.7c.1-1.1 1.2-3.4 3.3-3.3 2.9.2 4 2.1 3.7 3.3-.3 1-2.2.3-3.7.2-1.7-.2-3.4.7-3.3-.2zM736.4 202.2a5.26 5.26 0 01.1 3.5 11.5 11.5 0 01-.6 1.7c-.1.3-.3.5-.4.8a5.74 5.74 0 00-.4.7 2 2 0 00.1 2.2 5.24 5.24 0 001 1.1 3.09 3.09 0 001.4.7 2.75 2.75 0 01-1.8.1 4.25 4.25 0 01-1.7-1 3.25 3.25 0 01-1-1.8 2.78 2.78 0 01.4-2.2 2.1 2.1 0 01.5-.7 1.61 1.61 0 00.4-.7c.3-.5.5-.9.8-1.4a20.83 20.83 0 001.2-3zM751.5 196.5a3.29 3.29 0 00-3.5-3.1c-3.1.2-4.5 1.9-4.1 3.4.3 1.2 2.5.2 4.1 0 1.8-.3 3.5.9 3.5-.3zM739.2 219.1a17.66 17.66 0 01-.4-2 1.63 1.63 0 011.6-1.8 14.3 14.3 0 004.3-.9c3.8-1.4 4.3 1.2 3.2 3.8-2.8-.6-5.9.3-8.7.9z"/><path d="M748 218.3c-1 2.2-3.2 4.5-5.8 4a4 4 0 01-3-3.1c2.8-.7 5.9-1.6 8.8-.9z" fill="#e86484"/><path class="prefix__cls-8" d="M769.7 204.9a2.8 2.8 0 00-2 .3l-.3.6c-.1.2-.1.7-.2 1a15.66 15.66 0 01-.5 2.5 2.16 2.16 0 01-1.1 1.2 1.7 1.7 0 01-1.4 0 3.63 3.63 0 00.9-.8 1.34 1.34 0 00.2-.9 20.93 20.93 0 01.1-2.4 7.37 7.37 0 01.4-1.4 2 2 0 011.2-1.2 2.88 2.88 0 011.6 0 11.09 11.09 0 011.1 1.1z"/><path class="prefix__cls-12" d="M344.1 245.6h-41.7l-4.3 2.8a2.06 2.06 0 01-3.2-1.7v-29.5a5.38 5.38 0 015.4-5.4H344a5.38 5.38 0 015.4 5.4v23a5.23 5.23 0 01-5.3 5.4z"/><path class="prefix__cls-20" d="M308.4 221.3h27.8M308.4 228.9h27.8M308.4 236.5h16"/><path class="prefix__cls-7" d="M446.1 412.5s16.9 8.2 37.5 29.7c22.1 23.2 27.5 37.1 24.5 50.3-2.4 10.6-2.6 4.6-24.5 6.1s-42.9 1.1-50.8.4-50.4-11.8-64.1-25-9.8-36.6 1-59.6 73.2-7.7 76.4-1.9z"/><path class="prefix__cls-12" d="M470.3 483.1s4.9-11.8 15.5-13.3 25.4 5.4 21.6 28.6c-4.5 27.5-49.3 109.3-50 112.6s5.1 11.8 10.5 16.1 26.9 13.4 22.9 22.8c0 0-24 3.4-37.8 1.7s-16.7-7.8-18.9-6.8-4.8-1.9-5.3-3.1 4.6-27.4 4.6-27.4 19.9-72.7 24.2-90.1 12.7-41.1 12.7-41.1z"/><path class="prefix__cls-13" d="M490.8 650s-24 3.4-37.8 1.7-16.7-7.8-18.9-6.8-4.8-1.9-5.3-3.1c-.2-.5.4-4.5 1.3-9.3l26.4 2.6a41.19 41.19 0 009.5 0c3.8-.4 8.1-1.7 11.3-2.2 7.6 4.7 16.2 10.8 13.5 17.1z"/><path class="prefix__cls-21" d="M449.8 437.7a134.22 134.22 0 0125.7 22.3"/><path class="prefix__cls-12" d="M436.5 474s6.9-9.3 18.3-7.8 20.3 11.4 17.3 30.2-21.8 103.9-23.3 110.8.6 13.4 5.7 22.8 14.3 16.3 13.1 23.5c0 0-4.9 1.7-18.1 1.7s-25.2-.5-26.2-1.2-3.7-5.7-5.7-6.4-4-.2-4.3-1.9 6.4-28.5 7.2-35.4c4.8-43.2-3.4-117.4 16-136.3z"/><path class="prefix__cls-13" d="M467.7 653.4s-5 1.7-18.1 1.7-25.2-.5-26.2-1.2-3.7-5.7-5.7-6.4-4-.3-4.3-1.9c-.2-.9 2-10.3 4-19.5 2.1.7 7 2.5 7.9 3.9 1.1 1.8 2.8 7.6 6.3 9.5 3.3 1.7 20-5.9 28.7-1.4 4.2 5.6 8.2 10.4 7.4 15.3z"/><path class="prefix__cls-16" d="M471.5 480.7a37.64 37.64 0 01.6 15.6c-3 18.8-21.8 103.9-23.3 110.8s.6 13.4 5.7 22.8a31.73 31.73 0 003.2 4.9"/><path class="prefix__cls-11" d="M439.4 313.2s6-1.9 20.4 21.2 13.9 21.8 13.9 21.8 39-10.5 42.7-10.4 9.8 11.9 2 18.6c-6 5.2-40.4 21.9-51.2 22-6.8 0-12.6-3.3-29.4-28.2-18.4-27-3.9-47.5 1.6-45z"/><path class="prefix__cls-22" d="M473.7 356.3s-9.2 1.8-12.2 9"/><path class="prefix__cls-12" d="M532 338.5a37.46 37.46 0 000-6.6 59.63 59.63 0 00-1.8-9.6s-2.2-1.1-2.7 2.2-1.8 10.7-1.8 10.7 3.2 6.6 6.3 3.3z"/><path class="prefix__cls-8" d="M516.8 380.3h-39.5a4 4 0 01-4-4.7l9.6-63.1a6.24 6.24 0 016.2-5.3h39.5a4 4 0 014 4.7L523 375a6.17 6.17 0 01-6.2 5.3z"/><path class="prefix__cls-7" d="M515.3 309.2h-12.5a1.67 1.67 0 01-1.7-2 2.56 2.56 0 012.4-2H516a1.67 1.67 0 011.7 2 2.65 2.65 0 01-2.4 2z"/><path class="prefix__cls-12" d="M529.5 332.6s-14.2-.9-16.6-.6-3.1 2.5-.6 3.5c1.9.8 8.6 1.9 8.6 1.9s-13.6 2.4-15.1 3.7-.7 2.9.6 3.3c0 0-3.2 1.7-.9 3.8s10.7 2.9 10.7 2.9-7.7-1.1-7.9.9 10.2 4.2 14.3 3.7c6.1-.8 5.5-2.6 6.1-4.3s2.4-10 3.2-12.9c.1 0 .3-4.3-2.4-5.9z"/><path class="prefix__cls-16" d="M520.2 337.5s8 1.7 8.8 1.6M506.4 344.5a21.71 21.71 0 005.5.6c4 .1 15.8-1.2 15.8-1.2M514.3 350.9s8.1.8 11.5 0"/><path class="prefix__cls-8" d="M439.7 334.9s9.9-12.5 4.1-33.2c-3.2-11.3-10.8-17.7-8.1-30.8 2.9-14.7 8.1-16.4-7.3-21.3 0 0-22.7-6.1-36.7 4.2-9 6.6-9.4 12.8-9.1 25.5.2 9.5-10.5.2-13.8 17.9-1.8 9.6-2.1 7.8-10.9 15.7-12.8 11.5.6 50.8 32.5 55.3s47.4-17.7 49.3-33.3z"/><path class="prefix__cls-13" d="M364.8 327.2a15.24 15.24 0 0110.7-14 123 123 0 0126.2-5c20.6-1.7 35.3 2 37.1 4s2.4 12.3 3.9 16.6 12.4 14.1 10.2 25.8-6.3 17.6-7.6 22.8-2.4 11.9-2.2 16 5.9 19.5 6.5 22.8-10.8 13.5-34.3 14.5c-19.4.8-39.3-5.6-46.5-10.4a4.89 4.89 0 01-1.9-5.6c1.9-6 6.1-20.1 6.7-24.9.7-6.3-5.4-27.8-7.4-42.9a106.37 106.37 0 01-1.4-19.7z"/><path class="prefix__cls-15" d="M390.2 306.6s-1.8 11.7 6.3 12.2 4.6 2.5 6.4 6.6 7.3 2.6 8 2c4.2-3.3 5.9 2.8 10 2.1s2.5-4.1 4.6-4.9 6.4 0 4.8-5.4c-1.7-5.9 4.7-1.2 1.4-8.3-3.8-8.3-22.9-7.4-34.4-4.9s-6.9-1.4-7.1.6z"/><path class="prefix__cls-12" d="M423.6 300.3s.3 9.5.7 11.7 3.7 12.2-7 11.7c-6-.3-10.5-3.7-13.3-6.6a11.83 11.83 0 01-3.2-8.6l.9-16.6c0-.1 19.6-2.9 21.9 8.4z"/><path class="prefix__cls-14" d="M408.3 297.2c.7 8.9 7.9 13 15.8 13.7-.2-1.9-.3-5.2-.4-7.7-5 3.5-11.8-1.2-15.4-6z"/><path class="prefix__cls-12" d="M432.6 262.2c-13.9-2.9-29.2.3-42.4 6.1v.3c.6 22.9 8.2 35.4 21.2 37.7s22.6-5.8 21.4-20.3a214.73 214.73 0 01-.2-23.8z"/><path class="prefix__cls-12" d="M390.2 268.2c13.2-5.8 28.5-9 42.4-6.1.1-2.2.2-3.4.2-3.4"/><path class="prefix__cls-8" d="M429.8 268.2c-5.3-2.5-6.3 6.1-18.1 2.1-3.1-1.1-6.5-4.6-7.3 3-.4 3.6 1.1 7.1-3.7 13.9-3.9 5.6 10.5 22.7-8.9 29.4-13.3 4.6-20.3-5.2-27.8 6.4-5 7.7 4.5-15.9 22.3-27 8.4-5.2 1.5-21.5 1-25.3s1.7-11.5 14.4-14.5 26.6-13.8 35.5-5c6.2 6.1 5 22.7-7.4 17z"/><path class="prefix__cls-11" d="M380.7 319.8a10.66 10.66 0 00-16.8 3.3c-3.4 7.2-9.1 19.4-14.7 32.7-8.9 21.3-12.6 41.8 0 48.5s29.7-6.7 38.6-17.3 21.2-27 21.2-27-1.9-12.9-11-13.6l-17.1 12.9s4-9.2 5.4-13.9 1.2-19.1-5.4-25.5a.35.35 0 01-.2-.1z"/><path class="prefix__cls-22" d="M380.9 359.3s-24 15.1-28.2 23"/><path class="prefix__cls-12" d="M397.9 346.4s16-10.5 17.3-11 11.1 1.7 12.1 2.2 3 5.3 3 5.3 8 3.8 8.2 4.5-1.4 2.8-1.9 3.1-2.7.4-3.1.5-4.5 6.7-6.5 8.3-11.5.2-12.9.2-7.9 2-7.9 2-4.2-.9-7.3-6-1-9.1-1-9.1z"/><path class="prefix__cls-15" d="M445.9 345.1l2.8 2a.49.49 0 01-.3.9l-3.4.1-35.6-10.6a1.76 1.76 0 01-1.4-2.1 1.78 1.78 0 012.3-1z"/><path class="prefix__cls-12" d="M429.8 343.7s7.3-.5 7.7-1.3a2.43 2.43 0 00-.9-3c-1.1-.9-12.7-1.4-15.2-1.6a11.8 11.8 0 00-8 2.2c-2.1 2 9.2 9 16.4 3.7z"/><path class="prefix__cls-16" d="M433.6 351s-5.5-.8-6.2-.8h-3M430.4 355.4s-3.8.3-5.2.5a14 14 0 01-2.3 0"/><path class="prefix__cls-20" d="M419.5 294.9a9.14 9.14 0 01-6.6-2.9"/><path class="prefix__cls-8" d="M428.3 284.6a1.75 1.75 0 001.7-1.7v-1a1.75 1.75 0 00-1.7-1.7 1.75 1.75 0 00-1.7 1.7v1a1.69 1.69 0 001.7 1.7zM412.7 284.6a1.75 1.75 0 001.7-1.7v-1a1.75 1.75 0 00-1.7-1.7 1.75 1.75 0 00-1.7 1.7v1a1.75 1.75 0 001.7 1.7zM422.6 291.3a4.23 4.23 0 002.1-1.5 3.15 3.15 0 00.8-1.9.9.9 0 00-.1-.5l-.2-.7c-.1-.5-.2-.9-.3-1.5a9.42 9.42 0 01.1-2.9 15.77 15.77 0 011.3 2.6l.5 1.2.3.7a2.92 2.92 0 01.2.9 3.74 3.74 0 01-.5 1.8 3.45 3.45 0 01-1.2 1.2 4.71 4.71 0 01-1.5.6 1.36 1.36 0 01-1.5 0zM407.9 274.2c.1-1 1.3-1.6 3.2-2.1 4-.5 5.6 1.1 5 3.1-.5 1.6-3.3.1-5.1.1-1.5-.1-3.1-.2-3.1-1.1zM432.1 274.1c0-1-1-1.5-2.4-2.1-3-.6-4.3 1-3.9 2.8.4 1.5 2.5.2 3.9.2 1.2.1 2.5 0 2.4-.9zM287.5 286.9a64 64 0 00.9 13 4.12 4.12 0 01-2.5 4.6 4.48 4.48 0 01-3.9-.2c-3.2-2 1.8-23.3 5.5-17.4zM242.4 294.8s.1 7 .7 11.5a4.17 4.17 0 005.1 3.5 4.88 4.88 0 00.7-.3c1.8-1.2.5-17.6.5-17.6s-6.6.1-7 2.9zM238.1 280a49.55 49.55 0 01-4.8 19.7 2.77 2.77 0 00.7 3.2h.1a2.65 2.65 0 004.1-.9c2-4 5.8-12.8 5.5-22.1-.3-12.5-5.6.1-5.6.1z"/><path class="prefix__cls-23" d="M280.3 654c.1 1.5-2.5 4.3-7.7 4.3h-20.8c-18.2 0-24.7-.9-24-6.5a27 27 0 00-.5-9.8s-2.2-1.1-2.6-2 0-1.9 1.7-10.4c.1-.5.2-1.1.3-1.7 1.5-8.8 2.8-23 2.8-23 3.9-1.9 31.4 3.3 31.4 3.3s-2.5 10.6-1.2 15.7a6.37 6.37 0 00.2.7c1.6 4.9 20.3 28 20.4 29.4z"/><path class="prefix__cls-24" d="M259.3 620.7a60.81 60.81 0 011.6-12.5s-27.5-5.2-31.4-3.3c0 0-.3 3.2-.8 7.6 8.4 7.8 19.8 9.7 30.6 8.2z"/><path class="prefix__cls-8" d="M270.1 639.9c-6.3-3.1-18.2-3.4-28.2-.7a4 4 0 01-5-2.9 59.15 59.15 0 01-2-8.5c-.4-3.3-4.5-2.7-7.3-5.8-.4 2.7-.8 5.4-1.2 7.5-1.7 8.5-2 9.5-1.7 10.4s2.6 2 2.6 2a30.37 30.37 0 01.5 9.8c-.7 5.6 5.8 6.5 24 6.5h20.8c5.2 0 7.8-2.8 7.7-4.3-.1-.6-5.1-7.2-10.2-14z"/><path class="prefix__cls-23" d="M326.4 604.9s-.2 16.1-1.3 24.7-1.3 9.5-.9 10.4 2.8 2 2.8 2a28.18 28.18 0 011.2 9.8c-.3 5.6 6.3 6.5 24.5 6.5h20.8c5.2 0 7.6-2.8 7.4-4.3s-20.7-24.5-22.7-29.4-.2-16.5-.2-16.5-27.8-5.1-31.6-3.2z"/><path class="prefix__cls-24" d="M357.3 616.5a75.23 75.23 0 01.7-8.3s-27.9-5.2-31.6-3.3c0 0-.1 5.1-.3 11 9.2 6.4 20.8 4.1 31.2.6z"/><path class="prefix__cls-8" d="M368.6 638.6c-10.7-2-22.4 3-32.1-1.4-2.3-.6-3.3-5.4-4.9-8.4-1.3-2.5-3.1-3.3-6-4.7-.1 2-.3 3.9-.5 5.5-1 8.5-1.3 9.5-.9 10.4s2.8 2 2.8 2a28.18 28.18 0 011.2 9.8c-.3 5.6 6.3 6.5 24.5 6.5h20.8c5.2 0 7.6-2.8 7.4-4.3-.1-.8-6.3-8.1-12.3-15.4zM215 415.1s-8.2 8.4-8.3 27.8c-.1 23.1 14.6 39.7 38.7 39.7s72-.7 89.1 0 14.8-37 2.2-48.6-110.2-33-121.7-18.9z"/><path class="prefix__cls-8" d="M238.4 473.4c2.4-7.5 10.9-19.5 26.4-16.4 16.8 3.3 25 9 17.1 57.9-6.9 42.4-19.2 90.7-21.1 97.8a2 2 0 01-1.2 1.3 37 37 0 01-12.2 1.9c-7.4 0-15.5-2.7-18.7-5.5a3 3 0 01-1-2.5c.8-12 6.8-104.1 7.3-111 1-9.9 1.7-18.2 3.4-23.5zM350.4 457c17.2.7 26.3 11.9 21.5 57.9-4.3 41.2-12 88.3-13.4 97.2a2.6 2.6 0 01-1.8 2.1 35.37 35.37 0 01-11.4 1.6c-7 0-14.9-2.4-18.6-5.1a3.87 3.87 0 01-1.6-3.4c.3-10.7 1.5-67.3-2.5-110.3-2.6-27.4 11.7-40.7 27.8-40z"/><ellipse class="prefix__cls-9" cx="267" cy="473.5" rx="13.9" ry="11.6"/><ellipse class="prefix__cls-9" cx="352" cy="473.5" rx="13.9" ry="11.6"/><path class="prefix__cls-24" d="M331.6 370.9c-.6-1.6-1-2.6-1-2.6l-32.1 6.7.6 15.9c12.3-3.4 23.5-10.8 32.5-20z"/><path class="prefix__cls-23" d="M340.1 396.2c-1.7-7.3-6.4-19.9-8.5-25.3-9 9.3-20.2 16.6-32.6 19.9l.5 15.3 14.2 44.4 16.8-9.6c12.6-27.5 11.8-35.3 9.6-44.7z"/><path class="prefix__cls-7" d="M186.4 374.7a2.91 2.91 0 01-1.6-3.8c3.1-8.8 13.8-37.5 22.8-47.5 10.8-11.9 44.9-12.6 59.4-12.6s34.9 2.6 43 9.6c7 6 18.6 35.8 21.8 44.2a3.13 3.13 0 01-1.1 3.6c-4 2.7-13.5 8.8-22.5 12.1l4.3 60.6s-93.4-1.4-97.1-3.2-8.5-23.7-7.8-26 7.4-27.8 7.4-27.8-18.8-4.9-28.6-9.2z"/><g clip-path="url(#prefix__clip-path-3)"><ellipse class="prefix__cls-12" cx="296.99" cy="274.19" rx="6" ry="2.9" transform="rotate(-26.58 297.039 274.209)"/><ellipse class="prefix__cls-12" cx="317.2" cy="287.89" rx="6" ry="2.9" transform="rotate(-26.58 317.244 287.92)"/><ellipse class="prefix__cls-12" cx="272.39" cy="286.49" rx="6" ry="2.9" transform="rotate(-26.58 272.43 286.521)"/><ellipse class="prefix__cls-12" cx="292.6" cy="300.19" rx="6" ry="2.9" transform="rotate(-26.58 292.64 300.212)"/><ellipse class="prefix__cls-12" cx="315.5" cy="311.32" rx="6" ry="2.9" transform="rotate(-26.58 315.534 311.341)"/><ellipse class="prefix__cls-12" cx="335.71" cy="325.02" rx="6" ry="2.9" transform="rotate(-26.58 335.765 325.037)"/><ellipse class="prefix__cls-12" cx="290.99" cy="323.58" rx="6" ry="2.9" transform="rotate(-26.58 291.024 323.61)"/><ellipse class="prefix__cls-12" cx="311.2" cy="337.28" rx="6" ry="2.9" transform="rotate(-26.58 311.234 337.3)"/><ellipse class="prefix__cls-12" cx="247.79" cy="298.8" rx="6" ry="2.9" transform="rotate(-26.58 247.82 298.833)"/><ellipse class="prefix__cls-12" cx="268" cy="312.5" rx="6" ry="2.9" transform="rotate(-26.58 268.03 312.524)"/><ellipse class="prefix__cls-12" cx="223.19" cy="311.11" rx="6" ry="2.9" transform="rotate(-26.58 223.216 311.124)"/><ellipse class="prefix__cls-12" cx="243.4" cy="324.8" rx="6" ry="2.9" transform="rotate(-26.58 243.443 324.841)"/><ellipse class="prefix__cls-12" cx="266.39" cy="335.88" rx="6" ry="2.9" transform="rotate(-26.58 266.415 335.922)"/><ellipse class="prefix__cls-12" cx="286.6" cy="349.58" rx="6" ry="2.9" transform="rotate(-26.58 286.646 349.618)"/><ellipse class="prefix__cls-12" cx="241.79" cy="348.19" rx="6" ry="2.9" transform="rotate(-26.58 241.832 348.218)"/><ellipse class="prefix__cls-12" cx="262" cy="361.89" rx="6" ry="2.9" transform="rotate(-26.58 262.037 361.93)"/><ellipse class="prefix__cls-12" cx="334.61" cy="349.39" rx="6" ry="2.9" transform="rotate(-26.58 334.653 349.425)"/><ellipse class="prefix__cls-12" cx="354.82" cy="363.09" rx="6" ry="2.9" transform="rotate(-26.58 354.863 363.116)"/><ellipse class="prefix__cls-12" cx="310.01" cy="361.69" rx="6" ry="2.9" transform="rotate(-26.58 310.049 361.716)"/><ellipse class="prefix__cls-12" cx="330.22" cy="375.39" rx="6" ry="2.9" transform="rotate(-26.58 330.275 375.434)"/><ellipse class="prefix__cls-12" cx="353.12" cy="386.52" rx="6" ry="2.9" transform="rotate(-26.58 353.174 386.541)"/><ellipse class="prefix__cls-12" cx="373.42" cy="400.17" rx="6" ry="2.9" transform="rotate(-26.58 373.479 400.21)"/><ellipse class="prefix__cls-12" cx="328.61" cy="398.78" rx="6" ry="2.9" transform="rotate(-26.58 328.665 398.81)"/><ellipse class="prefix__cls-12" cx="348.82" cy="412.48" rx="6" ry="2.9" transform="rotate(-26.58 348.87 412.522)"/><ellipse class="prefix__cls-12" cx="285.41" cy="374" rx="6" ry="2.9" transform="rotate(-26.58 285.46 374.034)"/><ellipse class="prefix__cls-12" cx="305.62" cy="387.7" rx="6" ry="2.9" transform="rotate(-26.58 305.671 387.725)"/><ellipse class="prefix__cls-12" cx="260.81" cy="386.3" rx="6" ry="2.9" transform="rotate(-26.58 260.852 386.346)"/><ellipse class="prefix__cls-12" cx="281.02" cy="400" rx="6" ry="2.9" transform="rotate(-26.58 281.062 400.037)"/><ellipse class="prefix__cls-12" cx="304.01" cy="411.08" rx="6" ry="2.9" transform="rotate(-26.58 304.055 411.122)"/><ellipse class="prefix__cls-12" cx="324.22" cy="424.78" rx="6" ry="2.9" transform="rotate(-26.58 324.266 424.813)"/><ellipse class="prefix__cls-12" cx="279.41" cy="423.39" rx="6" ry="2.9" transform="rotate(-26.58 279.446 423.435)"/><ellipse class="prefix__cls-12" cx="299.62" cy="437.09" rx="6" ry="2.9" transform="rotate(-26.58 299.657 437.126)"/><ellipse class="prefix__cls-12" cx="198.42" cy="323.59" rx="6" ry="2.9" transform="rotate(-26.58 198.451 323.623)"/><ellipse class="prefix__cls-12" cx="218.59" cy="337.2" rx="6" ry="2.9" transform="rotate(-26.58 218.613 337.236)"/><ellipse class="prefix__cls-12" cx="173.82" cy="335.89" rx="6" ry="2.9" transform="rotate(-26.58 173.847 335.914)"/><ellipse class="prefix__cls-12" cx="194.03" cy="349.59" rx="6" ry="2.9" transform="rotate(-26.58 194.052 349.626)"/><ellipse class="prefix__cls-12" cx="216.93" cy="360.71" rx="6" ry="2.9" transform="rotate(-26.58 216.967 360.76)"/><ellipse class="prefix__cls-12" cx="237.09" cy="374.32" rx="6" ry="2.9" transform="rotate(-26.58 237.134 374.352)"/><ellipse class="prefix__cls-12" cx="192.42" cy="372.98" rx="6" ry="2.9" transform="rotate(-26.58 192.442 373.003)"/><ellipse class="prefix__cls-12" cx="212.63" cy="386.67" rx="6" ry="2.9" transform="rotate(-26.58 212.668 386.72)"/><ellipse class="prefix__cls-12" cx="149.22" cy="348.2" rx="6" ry="2.9" transform="rotate(-26.58 149.238 348.227)"/><ellipse class="prefix__cls-12" cx="169.43" cy="361.9" rx="6" ry="2.9" transform="rotate(-26.58 169.464 361.944)"/><ellipse class="prefix__cls-12" cx="124.62" cy="360.5" rx="6" ry="2.9" transform="rotate(-26.58 124.65 360.544)"/><ellipse class="prefix__cls-12" cx="144.83" cy="374.2" rx="6" ry="2.9" transform="rotate(-26.58 144.86 374.235)"/><ellipse class="prefix__cls-12" cx="167.82" cy="385.28" rx="6" ry="2.9" transform="rotate(-26.58 167.854 385.32)"/><ellipse class="prefix__cls-12" cx="188.03" cy="398.98" rx="6" ry="2.9" transform="rotate(-26.58 188.064 399.011)"/><ellipse class="prefix__cls-12" cx="143.22" cy="397.59" rx="6" ry="2.9" transform="rotate(-26.58 143.245 397.633)"/><ellipse class="prefix__cls-12" cx="163.43" cy="411.29" rx="6" ry="2.9" transform="rotate(-26.58 163.455 411.324)"/><ellipse class="prefix__cls-12" cx="236" cy="398.69" rx="6" ry="2.9" transform="rotate(-26.58 236.048 398.724)"/><ellipse class="prefix__cls-12" cx="256.21" cy="412.39" rx="6" ry="2.9" transform="rotate(-26.58 256.253 412.436)"/><ellipse class="prefix__cls-12" cx="211.4" cy="411" rx="6" ry="2.9" transform="rotate(-26.58 211.44 411.036)"/><ellipse class="prefix__cls-12" cx="231.61" cy="424.7" rx="6" ry="2.9" transform="rotate(-26.58 231.644 424.748)"/><ellipse class="prefix__cls-12" cx="254.6" cy="435.78" rx="6" ry="2.9" transform="rotate(-26.58 254.643 435.813)"/><ellipse class="prefix__cls-12" cx="274.8" cy="449.48" rx="6" ry="2.9" transform="rotate(-26.58 274.848 449.525)"/><ellipse class="prefix__cls-12" cx="229.99" cy="448.08" rx="6" ry="2.9" transform="rotate(-26.58 230.034 448.125)"/><ellipse class="prefix__cls-12" cx="250.2" cy="461.78" rx="6" ry="2.9" transform="rotate(-26.58 250.244 461.816)"/><ellipse class="prefix__cls-12" cx="186.8" cy="423.31" rx="6" ry="2.9" transform="rotate(-26.58 186.83 423.348)"/><ellipse class="prefix__cls-12" cx="207.01" cy="437" rx="6" ry="2.9" transform="rotate(-26.58 207.04 437.04)"/><ellipse class="prefix__cls-12" cx="162.2" cy="435.61" rx="6" ry="2.9" transform="rotate(-26.58 162.22 435.66)"/><ellipse class="prefix__cls-12" cx="182.41" cy="449.31" rx="6" ry="2.9" transform="rotate(-26.58 182.431 449.352)"/><ellipse class="prefix__cls-12" cx="205.39" cy="460.39" rx="6" ry="2.9" transform="rotate(-26.58 205.425 460.437)"/><ellipse class="prefix__cls-12" cx="225.6" cy="474.09" rx="6" ry="2.9" transform="rotate(-26.58 225.635 474.128)"/><ellipse class="prefix__cls-12" cx="180.79" cy="472.7" rx="6" ry="2.9" transform="rotate(-26.58 180.815 472.75)"/><ellipse class="prefix__cls-12" cx="201" cy="486.39" rx="6" ry="2.9" transform="rotate(-26.58 201.047 486.445)"/></g><path class="prefix__cls-21" d="M215 383.9s3.7 1 5.2 1.3c0 0 8.2-23.2 9.3-29.7s1.1-11.3 0-13.5M308.2 380.3s-.9-27.2-1.3-32.8-.6-10.4-2.4-14.1"/><path class="prefix__cls-24" d="M215 383.9s-20-5.4-28.2-9c0 0-.3.8-.7 2.1 8.3 6.1 17.3 11.6 27 13.9z"/><path class="prefix__cls-23" d="M262.5 434c-3-.3-13.2 2.2-13.2 2.2-10-10.2-38.8-35.2-38.8-35.2l2.7-10.2c-9.7-2.3-18.7-7.8-27-13.9-2 6-7.5 23.8-6 32.9 1.9 11.1 32.8 30.9 57.3 43.5 0 0 3.3 3.6 11.5 6.1 2.7.8 6.4 2.1 7.9 2.3s5.4-.2 7.8 0 3.5-1.9 6.1-1.6 3.3-1.4 5.2-.3 3.3-1.1 3.3-3.3-13.8-22.1-16.8-22.5z"/><path d="M210.5 401.1s-7.2-2.8-12.9 0" stroke="#89555f" stroke-linecap="round" stroke-linejoin="round" stroke-width="1.8" fill="none"/><path class="prefix__cls-15" d="M283.7 318.5c.4 9.6-7.9 17.2-18.4 16.9s-19.4-8.4-19.7-18 8.7-12.6 19.3-12.3 18.5 3.8 18.8 13.4z"/><path class="prefix__cls-23" d="M250.5 293.5s.2 19.9 0 23.6 4.1 12.8 16.6 12.8 13.1-12.2 12.9-12.8-.7-19.4-1.3-20.6c-.4-1.2-24.6-7.8-28.2-3z"/><path class="prefix__cls-24" d="M257.7 309.4c5.9 6.7 14.1 9.2 22.3 8.8a3.59 3.59 0 000-1.1c0-.2-.1-1.7-.2-3.9-7.4 2.3-14.7-1.7-22.1-3.8z"/><path class="prefix__cls-8" d="M284.4 294.8a41.23 41.23 0 006-17.4c1.4-11.6-4.1-19.7-11.6-23.3-5.2-2.5-23.9-6.8-35.5 4.5-7.3 7.1-8.3 30.2 3.1 35.7 14.6 7 2.2 8.5 2.8 9.1 0 0 .3 1.7 4.5-2.8s30.7-5.8 30.7-5.8z"/><path class="prefix__cls-23" d="M287.5 280.5s-.8 13.2-1.4 21.1-4.6 16-18.1 16.4-19.9-9.9-21.4-17.6c-2.2-11.7-6-34.3 12.7-36.9s28.2 3.3 28.2 17z"/><path class="prefix__cls-8" d="M287.5 272.4s-11.6 13.4-29.1 2.8c-6.4-3.9-7.9 1.9-7.9 4.2 0 3.2 1.5 9.5-3.5 12.1-2 1-5.1-5.2-3.4-19.1s28-12.8 36.7-11.8 8.6 5.6 7.2 11.8z"/><path class="prefix__cls-23" d="M249 290.1s-2-8.3-7.5-6.6-3.1 15.2 5.9 16.9"/><path class="prefix__cls-20" d="M268.8 308.4a9.51 9.51 0 01-6.9-3"/><path class="prefix__cls-8" d="M279.8 293.4a1.79 1.79 0 001.8-1.8v-1a1.79 1.79 0 00-1.8-1.8 1.79 1.79 0 00-1.8 1.8v1a1.86 1.86 0 001.8 1.8zM262.3 293.4a1.79 1.79 0 001.8-1.8v-1a1.79 1.79 0 00-1.8-1.8 1.79 1.79 0 00-1.8 1.8v1a1.79 1.79 0 001.8 1.8zM283.4 284.2a3.25 3.25 0 00-3.6-2.7c-3.1.1-3.6 1.9-3.2 3.1.3 1 1.7-.1 3.3-.3 1.8-.1 3.6.9 3.5-.1zM270.7 304.2a3.94 3.94 0 003.4-1.7 4.84 4.84 0 00.7-1.8 12 12 0 00.3-2 30.24 30.24 0 00-.2-4.2 17 17 0 010-4.5c.5 1.4 1 2.8 1.4 4.2a17.42 17.42 0 01.5 2.2 9.06 9.06 0 01.1 2.3 6.81 6.81 0 01-1.7 4.5 4 4 0 01-2.2 1.2 3.6 3.6 0 01-2.3-.2zM257.7 284.2c.1-1.2 1.4-2.8 3.8-2.7 3.4.2 3.9 1.9 3.5 3.1-.4 1-1.8-.1-3.5-.3-2-.1-3.9.9-3.8-.1zM241.6 289.1a2.13 2.13 0 01.7-1.2.94.94 0 01.9-.1.52.52 0 01.4.2c.1.1.3.2.3.3a4.18 4.18 0 01.8 1.2 6.33 6.33 0 01.4 3.7 2.72 2.72 0 000 .9c.1.3.4.5.7.8a1.81 1.81 0 01-1.4-.2 2.58 2.58 0 01-.8-1.3c-.2-.9-.3-1.6-.4-2.3-.1-.3-.1-.7-.2-1l-.3-.9c-.1-.2-.1-.4-.4-.4.1-.1-.3.1-.7.3z"/><circle class="prefix__cls-27" cx="260.6" cy="291.8" r="8.5"/><ellipse class="prefix__cls-27" cx="283.5" cy="291.8" rx="7.7" ry="8.5"/><path class="prefix__cls-27" d="M252.6 288.9h-1.4a2.72 2.72 0 01-1.7-.6l-1.7-1.4M268.9 290s4.7-1.7 6.9 0"/><path class="prefix__cls-8" d="M353.4 466h-96a4.25 4.25 0 01-4.1-5.4l7.2-26.5 7.3-27a6.84 6.84 0 016.6-5.1h96a4.25 4.25 0 014.1 5.4L360 460.9a6.84 6.84 0 01-6.6 5.1z"/><path class="prefix__cls-9" d="M374.5 407.5L360 460.9a6.84 6.84 0 01-6.6 5.1h-96"/><ellipse class="prefix__cls-10" cx="317.49" cy="434.82" rx="8" ry="6.2" transform="rotate(-41.29 317.528 434.85)"/><path class="prefix__cls-8" d="M238.1 271.2a33.4 33.4 0 01-7.3 14.6 2.83 2.83 0 00.4 4.2 2.89 2.89 0 004.1-.5 59.53 59.53 0 008.6-14.3c2-5.2-5.3-5.9-5.8-4z"/></svg>